<?xml version="1.0" encoding="UTF-8" standalone="no"?>
<svg
   xmlns:dc="http://purl.org/dc/elements/1.1/"
   xmlns:cc="http://creativecommons.org/ns#"
   xmlns:rdf="http://www.w3.org/1999/02/22-rdf-syntax-ns#"
   xmlns:svg="http://www.w3.org/2000/svg"
   xmlns="http://www.w3.org/2000/svg"
   xmlns:sodipodi="http://sodipodi.sourceforge.net/DTD/sodipodi-0.dtd"
   xmlns:inkscape="http://www.inkscape.org/namespaces/inkscape"
   height="48"
   width="48"
   id="svg10"
   version="1.1"
   y="0px"
   x="0px"
   viewBox="0 0 48 48"
   data-name="Layer 1"
   sodipodi:docname="icon.svg"
   inkscape:version="0.92.1 r15371">
  <sodipodi:namedview
     pagecolor="#ffffff"
     bordercolor="#666666"
     borderopacity="1"
     objecttolerance="10"
     gridtolerance="10"
     guidetolerance="10"
     inkscape:pageopacity="0"
     inkscape:pageshadow="2"
     inkscape:window-width="2560"
     inkscape:window-height="1387"
     id="namedview9"
     showgrid="false"
     inkscape:zoom="9.8333333"
     inkscape:cx="49.521262"
     inkscape:cy="36.029513"
     inkscape:window-x="-8"
     inkscape:window-y="-8"
     inkscape:window-maximized="1"
     inkscape:current-layer="svg10" />
  <metadata
     id="metadata16">
    <rdf:RDF>
      <cc:Work
         rdf:about="">
        <dc:format>image/svg+xml</dc:format>
        <dc:type
           rdf:resource="http://purl.org/dc/dcmitype/StillImage" />
        <dc:title />
      </cc:Work>
    </rdf:RDF>
  </metadata>
  <defs
     id="defs14" />
  <path
     inkscape:connector-curvature="0"
     id="path4"
     d="m 38.424526,42.12712 c 1.269406,0 2.298464,-1.029057 2.298464,-2.298464 v 0 -32.1784977 c 0,-1.2694067 -1.029058,-2.2984641 -2.298464,-2.2984641 H 15.439885 c -3.808221,0 -6.8953928,3.0871723 -6.8953928,6.8953928 v 0 0 22.984641 c 0,3.80822 3.0871718,6.895392 6.8953928,6.895392 z M 13.18739,34.766289 c 0.25265,-1.091495 1.235817,-1.856446 2.355925,-1.833025 h 20.582747 v 4.596928 H 15.439885 c -1.457226,10e-4 -2.547584,-1.336868 -2.252495,-2.763903 z"
     style="stroke-width:1.00000012" />
  <path
     sodipodi:type="inkscape:offset"
     inkscape:radius="1.0222431"
     inkscape:original="M 24.839844 12.427734 C 19.469097 12.427734 15.099617 16.795265 15.099609 22.166016 C 15.100085 22.524704 15.391312 22.815056 15.75 22.814453 L 17.697266 22.814453 C 18.607597 22.861413 18.607597 21.470619 17.697266 21.517578 L 16.466797 21.517578 C 16.608348 19.681256 17.329956 18.015313 18.447266 16.695312 L 18.96875 17.208984 C 19.57485 17.911984 20.586477 16.908949 19.888672 16.296875 L 19.361328 15.767578 C 20.674619 14.63072 22.344573 13.894264 24.189453 13.753906 L 24.189453 15.025391 C 24.189453 15.891276 25.488281 15.891276 25.488281 15.025391 L 25.488281 13.753906 C 27.333161 13.894264 29.003115 14.63072 30.316406 15.767578 L 29.789062 16.296875 C 29.091258 16.908949 30.102884 17.911984 30.708984 17.208984 L 31.230469 16.695312 C 32.347779 18.015314 33.069387 19.681256 33.210938 21.517578 L 31.980469 21.517578 C 31.070138 21.470618 31.070138 22.861412 31.980469 22.814453 L 33.927734 22.814453 C 34.286422 22.815056 34.577649 22.524704 34.578125 22.166016 C 34.578125 16.795265 30.210591 12.427734 24.839844 12.427734 z "
     style="color:#000000;font-style:normal;font-variant:normal;font-weight:normal;font-stretch:normal;font-size:medium;line-height:normal;font-family:Sans;-inkscape-font-specification:Sans;text-indent:0;text-align:start;text-decoration:none;text-decoration-line:none;letter-spacing:normal;word-spacing:normal;text-transform:none;writing-mode:lr-tb;direction:ltr;baseline-shift:baseline;text-anchor:start;display:inline;overflow:visible;visibility:visible;opacity:1;fill:#ffffff;fill-opacity:1;stroke:none;stroke-width:6.00000048;marker:none;enable-background:accumulate"
     id="path2"
     d="m 24.839844,11.40625 c -5.924944,0 -10.76171,4.834571 -10.761719,10.759766 a 1.0223454,1.0223454 0 0 0 0,0.002 c 0.0012,0.910633 0.761454,1.668426 1.671875,1.667969 h 1.894531 c 0.486843,0.02511 1.001124,-0.178756 1.314453,-0.517579 0.31333,-0.338822 0.44336,-0.753537 0.44336,-1.152343 0,-0.398807 -0.13003,-0.813522 -0.44336,-1.152344 -0.290563,-0.314204 -0.764603,-0.473524 -1.21875,-0.480469 0.200367,-0.875044 0.534831,-1.676585 1.011719,-2.402344 0.252259,0.133917 0.475119,0.347325 0.742188,0.339844 0.467237,-0.01309 0.857113,-0.215007 1.142578,-0.498047 0.285464,-0.28304 0.492692,-0.671563 0.509765,-1.138672 0.01012,-0.276843 -0.204457,-0.512956 -0.345703,-0.773437 0.715735,-0.480253 1.506984,-0.819234 2.373047,-1.023438 0.004,0.467709 0.209716,0.947482 0.539063,1.240235 0.332533,0.295585 0.735481,0.419922 1.125,0.419922 0.389518,0 0.79442,-0.124337 1.126953,-0.419922 0.329347,-0.292753 0.535018,-0.772526 0.539062,-1.240235 0.866064,0.204204 1.657313,0.543185 2.373047,1.023438 -0.141245,0.260481 -0.355822,0.496594 -0.345703,0.773437 0.01707,0.467109 0.224301,0.855632 0.509766,1.138672 0.285464,0.28304 0.67534,0.484959 1.142578,0.498047 0.267068,0.0075 0.489929,-0.205927 0.742187,-0.339844 0.476889,0.725759 0.811353,1.527301 1.011719,2.402344 -0.454147,0.0069 -0.928187,0.166265 -1.21875,0.480469 -0.31333,0.338822 -0.443359,0.753537 -0.443359,1.152344 0,0.398806 0.13003,0.813521 0.443359,1.152343 0.313329,0.338823 0.827611,0.542692 1.314453,0.517579 h 1.894531 c 0.910421,4.57e-4 1.670667,-0.757336 1.671875,-1.667969 a 1.0223454,1.0223454 0 0 0 0,-0.002 c 0,-5.924948 -4.834821,-10.759766 -10.759765,-10.759766 z" />
  <path
     style="color:#000000;font-style:normal;font-variant:normal;font-weight:normal;font-stretch:normal;font-size:medium;line-height:normal;font-family:Sans;-inkscape-font-specification:Sans;text-indent:0;text-align:start;text-decoration:none;text-decoration-line:none;letter-spacing:normal;word-spacing:normal;text-transform:none;writing-mode:lr-tb;direction:ltr;baseline-shift:baseline;text-anchor:start;display:inline;overflow:visible;visibility:visible;opacity:1;fill:#ffffff;fill-opacity:1;stroke:none;stroke-width:6.00000048;marker:none;enable-background:accumulate"
     d="m 28.126771,19.727907 c -0.09315,6.16e-4 -0.185071,0.02127 -0.269531,0.06055 0,0 -0.996158,0.455491 -2.076172,0.99414 -0.540007,0.269302 -1.099954,0.555912 -1.576172,0.824219 -0.476218,0.268329 -0.835294,0.470093 -1.123047,0.757812 -0.839685,0.839721 -0.839697,2.224733 0,3.064453 0.839688,0.839698 2.216919,0.839655 3.056641,0 0.287727,-0.287741 0.489485,-0.646833 0.757812,-1.123046 0.268328,-0.476214 0.554894,-1.04202 0.824219,-1.582032 0.538651,-1.080002 1.001953,-2.076171 1.001953,-2.076172 0.198219,-0.432264 -0.120175,-0.923948 -0.595703,-0.919921 z"
     id="path2-4"
     inkscape:connector-curvature="0"
     sodipodi:nodetypes="cccccccscccc" />
</svg>
